<?xml version="1.0" standalone="no"?><!DOCTYPE svg PUBLIC "-//W3C//DTD SVG 1.1//EN" "http://www.w3.org/Graphics/SVG/1.1/DTD/svg11.dtd"><svg t="1557815588517" class="icon" style="" viewBox="0 0 1024 1024" version="1.1" xmlns="http://www.w3.org/2000/svg" p-id="3497" xmlns:xlink="http://www.w3.org/1999/xlink" width="64" height="64"><defs><style type="text/css"></style></defs><path d="M401.914 284.8V74.552H300.928V284.8c0 52.212-107.676 167.436-107.676 288.062 0 95.45 13.58 316.054 19.25 403.982 1.348 20.896 18.686 37.154 39.626 37.154H448.754c20.94 0 38.278-16.258 39.626-37.154 5.67-87.928 19.25-308.534 19.25-403.982 0-120.626-105.716-235.85-105.716-288.062z" fill="#333399" p-id="3498"></path><path d="M459.436 974.782H241.446c-11.436 0-21.89-3.958-29.746-10.46l0.802 12.524c1.348 20.896 18.686 37.154 39.626 37.154h196.628c20.94 0 38.278-16.258 39.626-37.154l0.804-12.524c-7.86 6.5-18.314 10.46-29.75 10.46z" fill="#2C2C85" p-id="3499"></path><path d="M402.776 21.046A13.176 13.176 0 0 0 389.774 10h-78.668a13.172 13.172 0 0 0-13 11.046l-9.412 57.494c-1.312 8.018 4.876 15.302 13 15.302h97.492c8.126 0 14.314-7.284 13-15.302l-9.41-57.494z" fill="#D476E2" p-id="3500"></path><path d="M301.736 29.61h97.412a19.82 19.82 0 0 1 5.142 0.682l-1.514-9.246A13.176 13.176 0 0 0 389.774 10h-78.666a13.172 13.172 0 0 0-13 11.046l-1.514 9.246a19.82 19.82 0 0 1 5.142-0.682z" fill="#EA82FA" p-id="3501"></path><path d="M405.02 103.842h-109.158a14.644 14.644 0 1 1 0-29.288h109.158a14.644 14.644 0 1 1 0 29.288z" fill="#B665C2" p-id="3502"></path><path d="M206.194 874.776h288.494c5.366-90.786 11.442-205.374 12.704-277.472H193.49c1.262 72.098 7.338 186.686 12.704 277.472z" fill="#6770E6" p-id="3503"></path><path d="M445.378 840.556h-189.876a18.024 18.024 0 0 1-17.988-17.014l-0.346-6.226c-3.504-62.956-6.102-116.876-7.72-160.266l-0.256-6.84a17.866 17.866 0 0 1 5.03-13.172 17.872 17.872 0 0 1 12.974-5.516h206.488c4.94 0 9.546 1.958 12.974 5.516s5.212 8.236 5.028 13.17l-0.254 6.84c-1.618 43.388-4.216 97.31-7.72 160.264l-0.346 6.228a18.022 18.022 0 0 1-17.988 17.016z m-198.18-199.034a7.948 7.948 0 0 0-5.772 2.454 7.96 7.96 0 0 0-2.24 5.862l0.256 6.838c1.618 43.328 4.212 97.188 7.712 160.082l0.346 6.228a8.018 8.018 0 0 0 8.002 7.57h189.876a8.02 8.02 0 0 0 8.002-7.57l0.346-6.228c3.5-62.894 6.094-116.754 7.712-160.082l0.254-6.84a7.942 7.942 0 0 0-2.238-5.86 7.948 7.948 0 0 0-5.772-2.454H247.198z" fill="#8F95E6" p-id="3504"></path><path d="M460.98 415.204c-9.434-18.572-19.132-36.118-27.878-52.296l-28.726 4.54c-11.106-18.142-31.106-30.248-53.936-30.248s-42.828 12.108-53.934 30.248l-27.456-4.338c-8.898 16.158-18.76 33.678-28.348 52.22l50.862 8.036c9.192 23.544 32.078 40.232 58.876 40.232 26.8 0 49.686-16.688 58.876-40.232l51.664-8.162z" fill="#FFEFE4" p-id="3505"></path><path d="M350.842 399.722m-41.782 0a41.782 41.782 0 1 0 83.564 0 41.782 41.782 0 1 0-83.564 0Z" fill="#EDD4C2" p-id="3506"></path><path d="M393.49 704.636h-86.098a13.554 13.554 0 1 1 0-27.108h86.098a13.554 13.554 0 1 1 0 27.108zM425.746 749.576h-150.608a6.776 6.776 0 0 1 0-13.552h150.608a6.776 6.776 0 0 1 0 13.552zM425.746 794.55h-150.608a6.776 6.776 0 0 1 0-13.552h150.608a6.776 6.776 0 0 1 0 13.552z" fill="#8F95E6" p-id="3507"></path><path d="M631.734 1012.266l131.672 0.18c6.046 0.008 7.59-8.378 1.938-10.522l-45.712-17.348 0.204-266.492 3 0.004c59.348 0.08 107.526-47.966 107.606-107.314l0.306-311.838a8.484 8.484 0 0 0-8.472-8.496l-248-0.338a8.484 8.484 0 0 0-8.496 8.472l-0.306 311.84c-0.08 59.348 47.964 107.526 107.312 107.606l3 0.004-0.204 266.492-45.758 17.224c-5.658 2.128-4.136 10.518 1.91 10.526z" fill="#FFEFE4" p-id="3508"></path><path d="M672.818 698.408c-23.47-0.032-45.52-9.2-62.09-25.816s-25.678-38.688-25.646-62.154l0.294-106.492 225.75 0.308-0.294 106.498c-0.066 48.368-39.474 87.724-87.848 87.724l-50.166-0.068z" fill="#6770E6" p-id="3509"></path><path d="M765.342 1001.924l-8.466-3.212-118.578-0.162-8.474 3.19c-5.658 2.13-4.138 10.52 1.908 10.528l131.672 0.18c6.048 0.006 7.592-8.378 1.938-10.524z" fill="#EDD4C2" p-id="3510"></path><path d="M565.866 313.928c0.006-4.686 4.156-8.476 8.842-8.47l248 0.338a8.48 8.48 0 0 1 8.02 5.77l0.018-12.632a8.484 8.484 0 0 0-8.472-8.496l-248-0.338a8.484 8.484 0 0 0-8.496 8.472l0.088 15.356z" fill="#FFF7F2" p-id="3511"></path><path d="M675.764 718.046l44.048 0.06-0.044 31.364-44.048-0.062z" fill="#EDD4C2" p-id="3512"></path><path d="M774.984 538.562m-9.762 0a9.762 9.762 0 1 0 19.524 0 9.762 9.762 0 1 0-19.524 0Z" fill="#FFFFFF" p-id="3513"></path><path d="M702.496 528.798m-9.762 0a9.762 9.762 0 1 0 19.524 0 9.762 9.762 0 1 0-19.524 0Z" fill="#FFFFFF" p-id="3514"></path><path d="M745.274 584.966m-13.616 0a13.616 13.616 0 1 0 27.232 0 13.616 13.616 0 1 0-27.232 0Z" fill="#FFFFFF" p-id="3515"></path></svg>