<?xml version="1.0" standalone="no"?><!DOCTYPE svg PUBLIC "-//W3C//DTD SVG 1.1//EN" "http://www.w3.org/Graphics/SVG/1.1/DTD/svg11.dtd"><svg t="1559785860199" class="icon" style="" viewBox="0 0 1024 1024" version="1.1" xmlns="http://www.w3.org/2000/svg" p-id="1442" xmlns:xlink="http://www.w3.org/1999/xlink" width="64" height="64"><defs><style type="text/css"></style></defs><path d="M192 1024H0v-192h192z m-128-64h64v-64H64zM1024 1024h-192v-192h192z m-128-64h64v-64h-64zM192 192H0V0h192zM64 128h64V64H64zM1024 192h-192V0h192z m-128-64h64V64h-64z" fill="#2c2c2c" p-id="1443"></path><path d="M64 160h64v704H64zM160 64h704v64H160zM896 160h64v704h-64zM160 896h704v64H160zM416 704h192v64h-192z" fill="#2c2c2c" p-id="1444"></path><path d="M480 288h64v448h-64z" fill="#2c2c2c" p-id="1445"></path><path d="M768 384h-64v-64H320v64H256V256h512v128z" fill="#2c2c2c" p-id="1446"></path></svg>