<?xml version="1.0" standalone="no"?><!DOCTYPE svg PUBLIC "-//W3C//DTD SVG 1.1//EN" "http://www.w3.org/Graphics/SVG/1.1/DTD/svg11.dtd"><svg t="1559802334570" class="icon" style="" viewBox="0 0 1024 1024" version="1.1" xmlns="http://www.w3.org/2000/svg" p-id="2887" xmlns:xlink="http://www.w3.org/1999/xlink" width="64" height="64"><defs><style type="text/css"></style></defs><path d="M540.554 57.836c14.974 0 29.05 6.922 38.622 18.992 5.522 6.964 14.078 21.682 9.32 42.014-4.33 18.506-18.514 32.692-37.018 37.02l-77.844 18.212 18.212-77.844c4.33-18.504 18.514-32.69 37.018-37.018a51.42 51.42 0 0 1 11.684-1.376h0.006z m-0.008-40a91.2 91.2 0 0 0-20.794 2.428 89.628 89.628 0 0 0-66.854 66.856l-32.892 140.584 140.584-32.89a89.63 89.63 0 0 0 66.854-66.856c13.498-57.692-31.192-110.126-86.898-110.122zM299.464 57.836c3.85 0 7.782 0.462 11.682 1.376 18.506 4.33 32.69 18.514 37.02 37.02l18.212 77.844-77.844-18.212c-18.504-4.33-32.69-18.514-37.02-37.02-4.756-20.334 3.796-35.05 9.32-42.014 9.574-12.07 23.654-18.994 38.63-18.994z m0-40c-55.706 0-100.394 52.43-86.898 110.12a89.634 89.634 0 0 0 66.854 66.856l140.584 32.89-32.89-140.582a89.63 89.63 0 0 0-66.854-66.856 91.22 91.22 0 0 0-20.796-2.428z" fill="#69EBFC" p-id="2888"></path><path d="M452.898 107.12a89.63 89.63 0 0 1 66.854-66.856c7.036-1.646 14-2.426 20.794-2.428 45.57-0.002 83.746 35.09 88.75 79.442 6.048-53.324-36.504-99.446-88.75-99.442a91.2 91.2 0 0 0-20.794 2.428 89.628 89.628 0 0 0-66.854 66.856l-32.892 140.584 32.892-120.584zM387.112 107.12a89.63 89.63 0 0 0-66.854-66.856c-7.036-1.646-14-2.426-20.794-2.428-45.57-0.002-83.746 35.09-88.75 79.442-6.048-53.324 36.504-99.446 88.75-99.442a91.2 91.2 0 0 1 20.794 2.428 89.628 89.628 0 0 1 66.854 66.856l32.892 140.584-32.892-120.584z" fill="#A1F1FC" p-id="2889"></path><path d="M768.244 982.888H106.836c-19.368 0-35.068-15.7-35.068-35.068V286.41h696.476v696.478z" fill="#D476E2" p-id="2890"></path><path d="M71.768 907.818v40c0 19.368 15.702 35.068 35.07 35.068h661.408v-40H106.836c-19.368 0-35.068-15.7-35.068-35.068zM71.768 262.77h696.476v102.222H71.768z" fill="#B665C2" p-id="2891"></path><path d="M438.808 147.342h-37.604c-15.236 0-27.588 12.352-27.588 27.588v1.27c0 15.236 12.352 27.588 27.588 27.588h37.604c15.236 0 27.588-12.352 27.588-27.588v-1.27c-0.002-15.236-12.352-27.588-27.588-27.588z" fill="#69EBFC" p-id="2892"></path><path d="M438.808 147.344h-37.604c-15.236 0-27.586 12.352-27.586 27.586v1.27c0 3.292 0.606 6.436 1.666 9.366 3.838-10.618 13.98-18.222 25.922-18.222h37.604c11.942 0 22.084 7.604 25.922 18.222 1.058-2.928 1.666-6.072 1.666-9.366v-1.27c-0.004-15.236-12.354-27.586-27.59-27.586z" fill="#A1F1FC" p-id="2893"></path><path d="M903.394 374.42c14.974 0 29.05 6.922 38.622 18.992 5.522 6.964 14.078 21.682 9.32 42.014-4.33 18.506-18.514 32.692-37.018 37.02l-77.844 18.212 18.212-77.844c4.33-18.504 18.514-32.69 37.018-37.018a51.42 51.42 0 0 1 11.684-1.376h0.006z m-0.006-40a91.2 91.2 0 0 0-20.794 2.428 89.628 89.628 0 0 0-66.854 66.856l-32.892 140.582 140.584-32.89a89.63 89.63 0 0 0 66.854-66.856c13.496-57.688-31.192-110.124-86.898-110.12zM662.306 374.42c3.85 0 7.782 0.462 11.682 1.376 18.506 4.33 32.69 18.514 37.02 37.02l18.212 77.844-77.844-18.212c-18.504-4.33-32.69-18.514-37.02-37.02-4.756-20.334 3.796-35.05 9.32-42.014 9.572-12.07 23.652-18.994 38.63-18.994z m0-40c-55.706 0-100.394 52.43-86.898 110.12a89.634 89.634 0 0 0 66.854 66.856l140.584 32.89-32.892-140.582a89.63 89.63 0 0 0-66.854-66.856 91.2 91.2 0 0 0-20.794-2.428z" fill="#69EBFC" p-id="2894"></path><path d="M815.74 423.704a89.63 89.63 0 0 1 66.854-66.856c7.036-1.646 14-2.426 20.794-2.428 45.57-0.002 83.746 35.09 88.75 79.442 6.048-53.324-36.504-99.446-88.75-99.442a91.2 91.2 0 0 0-20.794 2.428 89.628 89.628 0 0 0-66.854 66.856l-32.892 140.582 32.892-120.582zM749.954 423.704a89.63 89.63 0 0 0-66.854-66.856c-7.036-1.646-14-2.426-20.794-2.428-45.57-0.002-83.746 35.09-88.75 79.442-6.048-53.324 36.504-99.446 88.75-99.442a91.2 91.2 0 0 1 20.794 2.428 89.628 89.628 0 0 1 66.854 66.856l32.892 140.582-32.892-120.582z" fill="#A1F1FC" p-id="2895"></path><path d="M801.648 463.928h-37.604c-15.236 0-27.588 12.352-27.588 27.588v1.27c0 15.236 12.352 27.588 27.588 27.588h37.604c15.236 0 27.588-12.352 27.588-27.588v-1.27c0-15.238-12.352-27.588-27.588-27.588z" fill="#69EBFC" p-id="2896"></path><path d="M774.488 321.754H65.524c-19.368 0-35.068-15.7-35.068-35.068v-47.83c0-19.368 15.7-35.068 35.068-35.068h708.962c19.368 0 35.068 15.7 35.068 35.068v47.83c0.002 19.368-15.698 35.068-35.066 35.068z" fill="#D476E2" p-id="2897"></path><path d="M774.488 203.786H65.524c-19.368 0-35.07 15.702-35.07 35.07v40c0-19.368 15.702-35.07 35.07-35.07h708.962c19.368 0 35.07 15.702 35.07 35.07v-40c0-19.368-15.7-35.07-35.068-35.07z" fill="#EA82FA" p-id="2898"></path><path d="M373.616 203.786h92.778v779.1h-92.778z" fill="#69EBFC" p-id="2899"></path><path d="M373.618 321.754h92.778v43.238h-92.778z" fill="#60D6E6" p-id="2900"></path><path d="M950.904 982.888H614.79c-21.532 0-38.988-17.456-38.988-38.988V568.794h414.092v375.104c0 21.534-17.456 38.99-38.99 38.99z" fill="#6770E6" p-id="2901"></path><path d="M950.904 942.886H614.79c-21.532 0-38.988-17.456-38.988-38.988v40c0 21.532 17.456 38.988 38.988 38.988h336.116c21.534 0 38.99-17.456 38.99-38.988v-40c-0.002 21.532-17.458 38.988-38.992 38.988zM575.8 589.808h414.092v43.24H575.8z" fill="#5A62C9" p-id="2902"></path><path d="M985.408 589.808H580.286c-16.042 0-29.048-13.004-29.048-29.048v-12.044c0-16.042 13.004-29.048 29.048-29.048h405.122c16.042 0 29.048 13.004 29.048 29.048v12.044c0 16.044-13.006 29.048-29.048 29.048z" fill="#6770E6" p-id="2903"></path><path d="M985.408 519.67H580.286c-16.042 0-29.046 13.004-29.046 29.046v12.044c0 1.354 0.124 2.674 0.304 3.978 1.944-14.156 14.054-25.07 28.744-25.07h405.124c14.69 0 26.8 10.914 28.744 25.07 0.18-1.304 0.304-2.624 0.304-3.978v-12.044c-0.004-16.04-13.01-29.046-29.052-29.046z" fill="#8F95E6" p-id="2904"></path><path d="M755.266 519.67h55.162v463.218h-55.162z" fill="#69EBFC" p-id="2905"></path><path d="M810.428 675.326c-11.276 3.19-20.59 8.162-27.898 13.572-7.178-5.39-16.288-10.34-27.264-13.53v226.7c11.768 7.768 18.928 11.694 19.49 12l9.79 5.322 9.678-5.524c0.506-0.29 6.406-3.682 16.204-10.324V675.326z" fill="#60D6E6" p-id="2906"></path><path d="M728.29 691.734c38.502-0.398 54.162 25.584 54.162 25.584s15.142-25.184 53.644-25.584c38.502-0.398 67.586 31.836 67.898 61.866 0.312 30.03-4.138 51.54-59.56 98.726-35.116 29.896-60.124 44.172-60.124 44.172s-25.3-13.754-61.028-42.916c-56.388-46.026-61.282-67.44-61.592-97.47-0.312-30.032 28.098-63.98 66.6-64.378z" fill="#FF8354" p-id="2907"></path><path d="M755.266 589.808h55.162v43.24h-55.162zM755.266 942.886h55.162v40h-55.162zM373.618 942.886h92.778v40h-92.778z" fill="#60D6E6" p-id="2908"></path><path d="M801.648 463.928h-37.604c-15.236 0-27.586 12.352-27.586 27.586v1.27c0 3.292 0.606 6.436 1.666 9.366 3.838-10.618 13.98-18.222 25.922-18.222h37.604c11.942 0 22.084 7.604 25.922 18.222 1.058-2.928 1.666-6.072 1.666-9.366v-1.27c-0.002-15.234-12.354-27.586-27.59-27.586z" fill="#A1F1FC" p-id="2909"></path></svg>